<svg width="18" height="19" viewBox="0 0 18 19" xmlns="http://www.w3.org/2000/svg">
  <path fill-rule="evenodd" clip-rule="evenodd"
    d="M12.0515 11.6799H12.8645L18 16.8591L16.4666 18.4025L11.3208 13.2337V12.4154L11.0429 12.1253C9.86964 13.1404 8.34648 13.7516 6.68954 13.7516C2.99485 13.7516 0 10.7373 0 7.01862C0 3.29995 2.99485 0.285645 6.68954 0.285645C10.3842 0.285645 13.3791 3.29995 13.3791 7.01862C13.3791 8.68633 12.7719 10.2194 11.7633 11.4002L12.0515 11.6799ZM2.05756 7.01861C2.05756 9.59785 4.12614 11.6799 6.68872 11.6799C9.2513 11.6799 11.3199 9.59785 11.3199 7.01861C11.3199 4.43936 9.2513 2.35732 6.68872 2.35732C4.12614 2.35732 2.05756 4.43936 2.05756 7.01861Z"
    fill="#007eb1" />
</svg>
